<svg xmlns="http://www.w3.org/2000/svg" viewBox="0 0 101.68 20.29"><defs><style>.cls-1{opacity:0.09;}.cls-2{fill:#010101;stroke-linecap:round;}.cls-2,.cls-3,.cls-4{stroke:#010101;stroke-width:0.25px;}.cls-2,.cls-3{stroke-linejoin:round;}.cls-3,.cls-4,.cls-5{fill:#fff;}.cls-4{stroke-miterlimit:10;}</style></defs><title>innod-logo</title><g id="Layer_2" data-name="Layer 2"><g id="Layer_1-2" data-name="Layer 1"><g class="cls-1"><path class="cls-2" d="M67.37,9.29A2.35,2.35,0,0,1,65,11.64a2.32,2.32,0,0,1-.84-.15,2.35,2.35,0,0,1-1.35-1.36h0a3.83,3.83,0,0,0-2-.55A3.89,3.89,0,0,0,57.26,12a5,5,0,0,1-1.44-.68,2.58,2.58,0,0,1-1.69.62,2.62,2.62,0,0,1-.58-5.17,5.17,5.17,0,0,1,8.94-3.27,2.6,2.6,0,0,1,.4,0,3,3,0,0,1,3,3,3.3,3.3,0,0,1-.07.64A2.34,2.34,0,0,1,67.37,9.29Z"/><path class="cls-2" d="M66.22,15.2a2.33,2.33,0,0,1-2.33,2.34A2.37,2.37,0,0,1,62.42,17a4,4,0,0,1-1.1.31h0c-.16,0-.31,0-.47,0l-.34,0h0a2.59,2.59,0,0,0,0-.48,3.08,3.08,0,0,0-3.07-3.07,3.55,3.55,0,0,0-.46,0c0-.11,0-.23,0-.35a3.76,3.76,0,0,1,.3-1.5,5,5,0,0,0,1.45.21,5.16,5.16,0,0,0,4.13-2,2.35,2.35,0,0,0,1.35,1.36A3.92,3.92,0,0,1,64.71,13,2.34,2.34,0,0,1,66.22,15.2Z"/><path class="cls-2" d="M62.39,18.72a1.45,1.45,0,0,1-2.85.37,3.07,3.07,0,0,1-3.88.28,1.69,1.69,0,1,1-2-2.63,1.15,1.15,0,0,1-.15-.59,1.2,1.2,0,0,1,1.2-1.2A1.09,1.09,0,0,1,55,15a3,3,0,0,1,2-1.15,3.89,3.89,0,0,0,3.49,3.51h0l.34,0a2.49,2.49,0,0,0,.47,0h0A1.46,1.46,0,0,1,62.39,18.72Z"/></g><path class="cls-3" d="M67.37,7.59a2.34,2.34,0,0,1-4.53.83h0a3.83,3.83,0,0,0-2-.55,3.89,3.89,0,0,0-3.59,2.39,5,5,0,0,1-1.44-.67,2.58,2.58,0,0,1-1.69.62A2.62,2.62,0,0,1,53.55,5a5.16,5.16,0,0,1,8.94-3.26,2.6,2.6,0,0,1,.4,0,3,3,0,0,1,3,3,3.2,3.2,0,0,1-.07.63A2.35,2.35,0,0,1,67.37,7.59Z"/><path class="cls-3" d="M66.22,13.49a2.33,2.33,0,0,1-3.8,1.82,3.4,3.4,0,0,1-1.1.31h0a3.71,3.71,0,0,1-.47,0,1.88,1.88,0,0,1-.34,0h0a2.45,2.45,0,0,0,0-.48,3.08,3.08,0,0,0-3.07-3.07,3.57,3.57,0,0,0-.46,0c0-.12,0-.24,0-.36a3.76,3.76,0,0,1,.3-1.5,5,5,0,0,0,1.45.21,5.16,5.16,0,0,0,4.13-2.05,2.32,2.32,0,0,0,1.35,1.36,3.91,3.91,0,0,1,.52,1.53A2.33,2.33,0,0,1,66.22,13.49Z"/><path class="cls-4" d="M62.39,17a1.45,1.45,0,0,1-2.85.38,3.06,3.06,0,0,1-2.11.84,3,3,0,0,1-1.77-.57,1.69,1.69,0,0,1-3-1.07,1.7,1.7,0,0,1,1-1.56,1.14,1.14,0,0,1-.15-.58,1.2,1.2,0,0,1,1.2-1.2l.26,0a3.08,3.08,0,0,1,2-1.15,3.89,3.89,0,0,0,3.49,3.51h0l.34,0a3.71,3.71,0,0,0,.47,0h0A1.46,1.46,0,0,1,62.39,17Z"/><path class="cls-5" d="M0,6.42H.71v5.7H0Z"/><path class="cls-5" d="M6.17,6.42h.71v5.7H6.07l-3-4.67v4.67H2.4V6.42h.86L6.17,11Z"/><path class="cls-5" d="M12.18,6.42h.71v5.7h-.81l-3-4.67v4.67H8.41V6.42h.86L12.18,11Z"/><path class="cls-5" d="M19.63,9.26a2.77,2.77,0,0,1-2.87,2.94,2.74,2.74,0,0,1-2.83-2.94,2.73,2.73,0,0,1,2.83-2.92A2.76,2.76,0,0,1,19.63,9.26Zm-4.93,0a2.1,2.1,0,1,0,4.17,0,2.09,2.09,0,1,0-4.17,0Z"/><path class="cls-5" d="M20.13,6.42h.73l1.6,4.51,1.61-4.51h.72l-2.12,5.7h-.42Z"/><path class="cls-5" d="M30.1,12.12h-.72c-.19-.56-.4-1.15-.62-1.73h-2.3l-.61,1.73h-.73l2.09-5.7H28ZM26.66,9.83h1.9c-.32-.89-.65-1.79-.95-2.65C27.31,8,27,8.94,26.66,9.83Z"/><path class="cls-5" d="M29.66,6.42H34V7H32.22v5.11h-.7V7H29.66Z"/><path class="cls-5" d="M35,6.42h.71v5.7H35Z"/><path class="cls-5" d="M36.9,6.42h.72l1.6,4.51,1.61-4.51h.73l-2.12,5.7H39Z"/><path class="cls-5" d="M42.13,6.42H46V7H42.84V8.89h2.54v.6H42.84v2H46v.58H42.13Z"/><path class="cls-5" d="M73.39,6.42h1.74a3.5,3.5,0,0,1,1.53.38,3.19,3.19,0,0,1,0,5,3.49,3.49,0,0,1-1.53.37H73.39Zm1.55,5.1a2.28,2.28,0,0,0,1.39-.37,2.4,2.4,0,0,0,.78-1.88,2.4,2.4,0,0,0-.78-1.88A2.36,2.36,0,0,0,74.94,7H74.1v4.5Z"/><path class="cls-5" d="M78.6,6.42h3.84V7H79.31V8.89h2.54v.6H79.31v2h3.13v.58H78.6Z"/><path class="cls-5" d="M86.51,8c-.07-.74-.79-1-1.42-1s-1.31.2-1.31.94c0,.51.33.88,1.6,1s1.9.57,1.9,1.58S86.56,12.2,85,12.2c-1.2,0-2.08-.62-2.16-1.63l.31-.06c.1,0,.18,0,.29-.06a1.52,1.52,0,0,0,1.72,1.15c.68,0,1.42-.3,1.42-1.1s-.72-1-1.79-1.07C83.3,9.27,83.09,8.35,83.09,8c0-.74.5-1.61,1.89-1.61s2.13.53,2.15,1.47Z"/><path class="cls-5" d="M88.48,6.42h.7v5.7h-.7Z"/><path class="cls-5" d="M93.31,9.27h2.54v2.91h-.68v-.85a2.26,2.26,0,0,1-.34.35,2.46,2.46,0,0,1-1.61.53,2.58,2.58,0,0,1-2.66-2.86,2.75,2.75,0,0,1,2.73-3,2.7,2.7,0,0,1,1.79.55,2.08,2.08,0,0,1,.65,1.31l-.4.06a2.76,2.76,0,0,1-.4.06,1.49,1.49,0,0,0-1.61-1.38c-1.33,0-1.95,1-1.95,2.33S92,11.6,93.32,11.6A1.82,1.82,0,0,0,95.17,10V9.81H93.31Z"/><path class="cls-5" d="M101,6.42h.71v5.7h-.82l-3-4.67v4.67h-.71V6.42h.87C99,7.88,100,9.54,101,11Z"/></g></g></svg>