<svg xmlns="http://www.w3.org/2000/svg" viewBox="0 0 103.29 20.29"><defs><style>.cls-1{opacity:0.09;}.cls-2{fill:#010101;stroke-linecap:round;}.cls-2,.cls-3,.cls-4{stroke:#010101;stroke-width:0.25px;}.cls-2,.cls-3{stroke-linejoin:round;}.cls-3,.cls-4,.cls-5{fill:#fff;}.cls-4{stroke-miterlimit:10;}.cls-5{font-size:7.71px;font-family:CothamSans, Cotham Sans;}.cls-6{letter-spacing:-0.09em;}</style></defs><title>Asset 6</title><g id="Layer_2" data-name="Layer 2"><g id="Layer_1-2" data-name="Layer 1"><g class="cls-1"><path class="cls-2" d="M68.23,9.29a2.35,2.35,0,0,1-3.18,2.2,2.38,2.38,0,0,1-1.35-1.36h0a3.84,3.84,0,0,0-2-.55A3.9,3.9,0,0,0,58.12,12a5.14,5.14,0,0,1-1.44-.68,2.56,2.56,0,0,1-1.69.62,2.62,2.62,0,0,1-.58-5.17,5.17,5.17,0,0,1,8.94-3.27,2.6,2.6,0,0,1,.4,0,3,3,0,0,1,3,3,2.67,2.67,0,0,1-.07.64A2.34,2.34,0,0,1,68.23,9.29Z"/><path class="cls-2" d="M67.09,15.2A2.33,2.33,0,0,1,63.29,17a4.15,4.15,0,0,1-1.11.31h0c-.15,0-.31,0-.47,0l-.34,0h0a3.87,3.87,0,0,0,0-.48,3.07,3.07,0,0,0-3.06-3.07,3.44,3.44,0,0,0-.46,0c0-.11,0-.23,0-.35a3.94,3.94,0,0,1,.3-1.5,5,5,0,0,0,1.45.21,5.15,5.15,0,0,0,4.13-2,2.38,2.38,0,0,0,1.35,1.36A3.77,3.77,0,0,1,65.57,13,2.34,2.34,0,0,1,67.09,15.2Z"/><path class="cls-2" d="M63.25,18.72a1.45,1.45,0,0,1-2.85.37,3.07,3.07,0,0,1-3.88.28,1.69,1.69,0,1,1-2-2.63,1.16,1.16,0,0,1-.16-.59A1.2,1.2,0,0,1,55.6,15l.27,0a3,3,0,0,1,2-1.15,3.88,3.88,0,0,0,3.49,3.51h0l.34,0a2.42,2.42,0,0,0,.47,0h0A1.45,1.45,0,0,1,63.25,18.72Z"/></g><path class="cls-3" d="M68.23,7.59a2.34,2.34,0,0,1-4.53.83h0a3.84,3.84,0,0,0-2-.55,3.9,3.9,0,0,0-3.59,2.39,5.11,5.11,0,0,1-1.44-.67,2.56,2.56,0,0,1-1.69.62A2.62,2.62,0,0,1,54.41,5a5.16,5.16,0,0,1,8.94-3.26,2.6,2.6,0,0,1,.4,0,3,3,0,0,1,3,3,2.59,2.59,0,0,1-.07.63A2.35,2.35,0,0,1,68.23,7.59Z"/><path class="cls-3" d="M67.09,13.49a2.34,2.34,0,0,1-2.34,2.34,2.26,2.26,0,0,1-1.46-.52,3.53,3.53,0,0,1-1.11.31h0a3.59,3.59,0,0,1-.47,0,1.88,1.88,0,0,1-.34,0h0a3.64,3.64,0,0,0,0-.48,3.07,3.07,0,0,0-3.06-3.07,3.42,3.42,0,0,0-.46,0c0-.12,0-.24,0-.36a3.94,3.94,0,0,1,.3-1.5,5,5,0,0,0,1.45.21A5.15,5.15,0,0,0,63.7,8.42a2.35,2.35,0,0,0,1.35,1.36,3.76,3.76,0,0,1,.52,1.53A2.32,2.32,0,0,1,67.09,13.49Z"/><path class="cls-4" d="M63.25,17a1.45,1.45,0,0,1-2.85.38,3.06,3.06,0,0,1-2.11.84,3,3,0,0,1-1.77-.57,1.67,1.67,0,0,1-1.3.61A1.69,1.69,0,0,1,54.56,15a1.15,1.15,0,0,1-.16-.58,1.2,1.2,0,0,1,1.2-1.2l.27,0a3.05,3.05,0,0,1,2-1.15,3.88,3.88,0,0,0,3.49,3.51h0l.34,0a3.59,3.59,0,0,0,.47,0h0A1.45,1.45,0,0,1,63.25,17Z"/><text class="cls-5" transform="translate(0 12.12)">INNOV<tspan class="cls-6" x="25.8" y="0">A</tspan><tspan x="30.37" y="0">TIVE</tspan></text><text class="cls-5" transform="translate(73.74 12.12)">DESIGN</text></g></g></svg>